PathFileType	4	(X/Y/Z)	31_1_8_p0_0-208_filt_butterworth.trc
DataRate	CameraRate	NumFrames	NumMarkers	Units	OrigDataRate	OrigDataStartFrame	OrigNumFrames
59.0	59.0	4	27	m	59.0	0	208
Frame#	Time	RHip			RKnee			RAnkle			RBigToe			RSmallToe			RHeel			LHip			LKnee			LAnkle			LBigToe			LSmallToe			LHeel			Neck			Head			Nose			RShoulder			RElbow			RWrist			RThumb			RIndex			RPinky			LShoulder			LElbow			LWrist			LThumb			LIndex			LPinky			
		X1	Y1	Z1	X2	Y2	Z2	X3	Y3	Z3	X4	Y4	Z4	X5	Y5	Z5	X6	Y6	Z6	X7	Y7	Z7	X8	Y8	Z8	X9	Y9	Z9	X10	Y10	Z10	X11	Y11	Z11	X12	Y12	Z12	X13	Y13	Z13	X14	Y14	Z14	X15	Y15	Z15	X16	Y16	Z16	X17	Y17	Z17	X18	Y18	Z18	X19	Y19	Z19	X20	Y20	Z20	X21	Y21	Z21	X22	Y22	Z22	X23	Y23	Z23	X24	Y24	Z24	X25	Y25	Z25	X26	Y26	Z26	X27	Y27	Z27	
0	0.0	0.17873958941081675	0.3688778089884039	0.9148255991557216	0.16682309341832938	-0.04402838160137623	0.9239295222684928	0.11180983813506526	-0.49538429602120687	0.9412503982684074	0.06447913032565207	-0.4380801366827188	0.6760569205943312	0.13877965685794236	-0.4573418862233958	0.7139389743026607	0.0980387198636394	-0.5646640722274763	0.9848471377472992	-0.03800926572671651	0.3684836036796058	0.948324146761222	-0.06428424568612418	-0.027322422798320534	0.9313778186595703	-0.08557395457126404	-0.4434163271065087	0.9182658379292287	-0.09089017336502633	-0.4662752116513624	0.7467373043416078	-0.14384209089537967	-0.46796391325431713	0.7944872352609339	-0.06238676230613115	-0.5101276288631599	0.9526747278532545	0.1045942529551149	1.0273777673073943	0.9282407916483799	0.08877769553113252	1.3158181177902564	0.8634569228668402	0.08800864744768332	1.1792974673674477	0.8050759453986581	0.26564795889196285	0.9312120557552372	0.9138655576712693	0.320992038126811	0.6407001077584225	0.8891165963074035	0.13510535036865892	0.5167828676879819	0.7092002089494533	0.07433592015907838	0.46602099583257817	0.6619220531377229	0.05567335675919263	0.4059237000106625	0.7246950014036632	0.05108987590363916	0.4234667884427789	0.7030332132100521	-0.047157499446524566	0.9309828770343055	0.9203662682264155	-0.0724739610017212	0.6580908068602388	0.8659366463523934	0.052611464384283366	0.46724324477733514	0.7360558495135068	0.14005238143776372	0.40343159479961427	0.7096276707460307	0.145256982206039	0.36270899664255773	0.7183629366197406	0.10258835294917666	0.36001614939752946	0.7031780253859634	
1	0.0169491525423728	0.18246801949404112	0.37269717617319137	0.9142833792713807	0.16587033245776178	-0.04066724903683683	0.91970971624349	0.11171389940957259	-0.49575004153177304	0.9418716788595851	0.06639448167659769	-0.44242961050152585	0.6815718238546145	0.14067967972117112	-0.4612806595084072	0.7189304169368573	0.09973150013049302	-0.5632861269911758	0.9858587757209917	-0.03879774451849259	0.37258968913487156	0.9445557744892328	-0.06405967835689792	-0.027865639645078488	0.9315209742313978	-0.08601281357856866	-0.4431548285323267	0.918130258679096	-0.08895015811067278	-0.45927196900948397	0.7412876383730206	-0.1439050163953924	-0.46672462571587126	0.7937298417213485	-0.062228389017113	-0.5094077688279771	0.9533576343431144	0.10507331672780622	1.0271360223521713	0.928266949315652	0.09035855992121096	1.3142465535299028	0.8638502241995417	0.08799217721823213	1.1793673382840804	0.805088411072739	0.26563455072977404	0.9312752790221072	0.9137179858961653	0.32260233986180614	0.6425543868473347	0.8831655749893992	0.13474613565504243	0.5119931036196075	0.7081127028229734	0.07308572361549898	0.44356052211153874	0.6850154359402862	0.054137447849445144	0.39948484409754365	0.7309439835065257	0.05225506631537099	0.4155949539844679	0.713302792245044	-0.04717539847939151	0.9309793595699036	0.9204214610988115	-0.07408266780718847	0.6557513933717148	0.8739707329231166	0.05231170339202144	0.4590085133207267	0.7522452210284405	0.14027380676818732	0.39859115789674837	0.7157055650914858	0.14310076225860116	0.35590636113522633	0.729320589504549	0.09972059627340812	0.35634686502028656	0.7144214098112539	
2	0.0338983050847457	0.1855099069469954	0.3757291407376058	0.9138073628122754	0.16509334801585923	-0.03793486645121563	0.9162333946547302	0.11162923058614839	-0.4960734928970377	0.9424110927990336	0.06756534956583293	-0.44515003117053076	0.6849956466408846	0.14187030147345778	-0.4637960779861065	0.7221032206999515	0.10103231695044491	-0.5625057709276933	0.9870822158726809	-0.039436829257106384	0.37572771986206854	0.9415867169380887	-0.06388884302398959	-0.028437721486342493	0.9316509874288218	-0.08627999563238327	-0.4429929128028261	0.9180450576918691	-0.0879363918173761	-0.4540599085327398	0.7362885402380301	-0.14376615537340384	-0.46592091280814474	0.7931574247988291	-0.0621687719591656	-0.5092709736361936	0.9543389575384987	0.10597798370183914	1.0273522453689976	0.9280160457910451	0.09141875744075963	1.3131595343846727	0.8655063680734819	0.08797178955787453	1.179413904730071	0.805094934096734	0.26562105979433753	0.9313194229539908	0.9136079627755507	0.323774005960624	0.6439416198607228	0.8788385978225288	0.13482757071539644	0.508262783218453	0.707490943236998	0.07101506912609046	0.4287096469600944	0.7015792656180575	0.053215058262290206	0.39479231571457785	0.7354535108878147	0.052422035677313475	0.4098217772120688	0.7204026431919253	-0.04717923524902109	0.9309728678423184	0.920479599490678	-0.07604626152186406	0.6546425901989068	0.8782647854111587	0.05139908166885288	0.45367282722499946	0.76310490684115	0.1400515604665538	0.39499590171447563	0.7203717651765476	0.1412899716422391	0.3510010329842984	0.7371345245810039	0.09807744348186728	0.3528580867365377	0.7240467909422866	
3	0.0508474576271186	0.1879215315179776	0.3780385651062028	0.9133933610492069	0.16447948164798462	-0.03578416784739724	0.9134485009125255	0.11155518720262159	-0.49635716169871547	0.9428740794485991	0.06810379067385816	-0.4464860845187756	0.6866425993800894	0.14249097092931198	-0.46515988942490705	0.7238071279931019	0.10197638918051546	-0.5622601115981188	0.9884865171473621	-0.039938772727035284	0.3779801520635453	0.9393498352464216	-0.0637671533005502	-0.029032295216306514	0.9317684760663516	-0.08639473111190067	-0.44291777826066825	0.9180055508382962	-0.08764800176817211	-0.45038011695884483	0.7318191637015975	-0.14349476389258212	-0.46551585050538835	0.7927514616478029	-0.062198122873342254	-0.5096524402802896	0.9555812059209383	0.10717439560867333	1.027881378717446	0.9276975267273928	0.09205111568056654	1.3124749610043864	0.8680090832599825	0.0879487233308834	1.1794413147276406	0.8050973395700944	0.2656089420823727	0.9313477266406923	0.9135341176642535	0.32451729310342614	0.6448935883672446	0.8758091596832089	0.13512745124010994	0.5054483820736917	0.7072149471224614	0.06829751367075361	0.42004690537425815	0.7126707291021273	0.05269028675120189	0.39158155490354835	0.7384846680735448	0.05179989756550857	0.40583860270426325	0.7248684703027527	-0.04717132283007083	0.9309639726191191	0.9205398442557362	-0.07822625672864249	0.6544993810795154	0.8795330457178394	0.050030336644476335	0.45076942235972484	0.7694740105290354	0.139305738007248	0.3925582890641421	0.7236112831420942	0.13963336282381084	0.34776851534646097	0.7422748550477716	0.09735196229514584	0.34962582853214	0.732098690147416	
